# xmcd
#
# Track frame offsets: 
#        150
#        8948
#        19383
#        40102
#        51955
#        68234
#        81769
#        110162
#        122928
#        135514
#        143943
#        175038
#        195878
#        211538
#        226141
#        252611
#        263923
#        295690
#        316956
#        332255
#
# Disc length: 4744 seconds
#
# Revision: 0
# Processed by: cddbd v1.5.2PL0 Copyright (c) Steve Scherf et al.
# Submitted via: ExactAudioCopy v0.99pb5
#
DISCID=19128614
DTITLE=Cuby and Blizzards - Collected - CD1
DYEAR=2010
DGENRE=Blues
TTITLE0=Stumble and Fall
TTITLE1=Your Body Not Your Soul
TTITLE2=Back Home (A Man)
TTITLE3=Feeling Like A Suit-Case
TTITLE4=Nostalgic Toilet
TTITLE5=Desolation Blues
TTITLE6=Hobo Blues
TTITLE7=Just For Fun
TTITLE8=The Sunshine Of Your Shadow
TTITLE9=Another Day Another Road
TTITLE10=Somebody Will Know Someday
TTITLE11=Another Land
TTITLE12=Window Of My Eyes
TTITLE13=Checkin Up My Baby
TTITLE14=The Sky Is Crying
TTITLE15=Appleknockers Flophouse
TTITLE16=Go Down Sunshine
TTITLE17=Night Train
TTITLE18=Thursday Night
TTITLE19=Too Blind To See
EXTD=
EXTT0=
EXTT1=
EXTT2=
EXTT3=
EXTT4=
EXTT5=
EXTT6=
EXTT7=
EXTT8=
EXTT9=
EXTT10=
EXTT11=
EXTT12=
EXTT13=
EXTT14=
EXTT15=
EXTT16=
EXTT17=
EXTT18=
EXTT19=
PLAYORDER=
